<svg width="168" height="150" viewBox="0 0 168 150" fill="none" xmlns="http://www.w3.org/2000/svg">
<path d="M4.69547 100.385L2.67387 92.2986L2 83.5383L3.34774 73.3292L4.69547 66.4894L8.06482 58.6052L12.7819 52.5403L20.1944 45.8017L26.2593 41.0846L32.9979 37.0414L39.7366 33.672L49.1708 30.9766H57.6952H63.8544L67.3652 31.6504L66.0175 35.6936V39.7369L66.6914 44.4539L67.3652 48.9554L70.0607 51.8665L74.1039 55.2358L77.4733 57.2574L80.8426 57.9313H83.5381L86.2335 61.3006L89.6029 64.67L94.32 66.6916H99.7109L104.691 65.6808L107.797 68.7132L108.471 76.1257L109.145 84.2122V90.5802L108.471 97.0157L105.776 103.08L102.406 110.493L99.7109 114.536L97.0154 117.906L92.9722 122.623L86.2335 128.014L80.8426 131.383L72.0823 135.426L65.3436 137.448H59.0901H55.5725V133.782L54.5617 131.383L51.8663 128.014L48.4969 127.34L45.1276 126.666L41.7582 125.992L38.3889 123.297L35.6934 119.253L33.6718 115.884L30.3025 113.862L26.2593 113.189L21.5422 114.536L18.1728 117.232L15.4774 119.253L12.7819 116.558L10.0864 113.189L8.73868 110.493" stroke="black" stroke-width="3" stroke-miterlimit="10"/>
<path d="M15.4774 119.253L12.1081 123.296L7.39099 127.339V131.153V136.794L8.73873 140.143L12.1081 142.164L15.4774 142.966H18.8804L22.89 146.208L26.9332 147.555H34.4401L38.3889 145.534L43.106 142.164L47.1492 141.491L52.5402 140.143L55.5726 137.447" stroke="black" stroke-width="3" stroke-miterlimit="10"/>
<path d="M67.3652 31.6502L72.0823 28.2809L78.1471 25.5854L80.1687 22.8899V19.1297L82.1903 15.4774L84.2119 13.4558L88.929 11.4342H93.1003H98.0532H101.032L103.08 8.06481L107.797 4.69547L112.514 2H117.885H122.845L128.013 4.69547L131.383 7.39095L134.752 12.108L135.952 16.8251V20.9424L138.795 23.5638H144.186" stroke="black" stroke-width="3" stroke-miterlimit="10"/>
<path d="M104.691 65.6801L106.45 63.9954L109.145 62.7353L113.842 64.2111L117.602 65.6801H123.013L127.966 62.7353L132.73 59.2783H136.679L142.165 61.2999L150.089 62.4792L156.444 59.2783L161.033 54.5613L164.402 48.4964L165.75 43.1055V38.5704L163.055 33.6713L159.685 29.6281L155.642 26.2588" stroke="black" stroke-width="3" stroke-miterlimit="10"/>
<path d="M17.2698 48.4633L11.771 46.8123L7.39085 45.97L5.03231 42.7691L3.68457 40.0737V36.7043L5.03231 34.0088L7.39085 31.6503L10.4772 29.8848L11.744 26.2594L12.4449 21.8792L14.4665 19.1837L17.2698 17.6608L21.4073 16.8252L25.9222 17.836L28.6177 20.5315L31.4816 22.6205L36.0302 22.5531L40.0735 23.9008L42.1018 26.2594L43.4428 29.2918V31.6503" stroke="black" stroke-width="3" stroke-miterlimit="10"/>
<path d="M12.7819 52.5403L17.162 55.5728L18.5097 60.9637V65.6808L19.8575 68.3763H23.5638H26.7511L30.6394 69.724L34.0087 71.7456L38.0519 74.4411L40.7474 77.1365L42.0277 84.2122V90.4185L43.4429 94.4213L46.8122 96.6787L51.5293 101.396L54.2248 104.765L56.9202 110.83V115.156V121.747L58.268 127.003L60.2896 129.024H64.7978L69.0499 126.329L71.7453 122.96L75.3977 119.253L77.1363 114.873V109.064L79.1579 104.765L80.5056 100.048L82.5272 97.3526L84.5488 93.9833L90.0341 90.7824L94.6569 87.9184V84.2122L93.3091 79.832L87.9182 77.1365L82.5272 73.0933L75.1147 69.0501L69.1173 65.6808L62.9851 60.9637L58.268 58.9421L55.5725 58.1941L52.2032 58.9421L48.8338 60.2898L45.4645 60.9637L40.7474 58.9421L37.3781 56.9205L34.6826 54.8989L34.0087 50.1818L36.0303 46.8125H38.0789H42.3108L46.3136 48.4635H49.3729L52.2032 44.7909L53.7194 41.9539L57.5941 38.726L60.2896 36.0306L61.3947 32.641L57.6952 30.9766H52.4525L46.8122 31.6504L39.7366 33.672L32.9979 37.0414L26.2592 41.0846L20.1944 45.8017L15.3493 50.2088L12.7819 52.5403Z" fill="black" stroke="black" stroke-width="3" stroke-miterlimit="10"/>
<path d="M100.385 28.2804L96.4764 26.2588L91.0585 28.2804L88.4641 32.6403V37.29L89.603 41.0839L91.6246 42.4316L94.657 43.6513H98.5654L100.385 42.4856L102.406 41.0839" stroke="black" stroke-width="3" stroke-miterlimit="10"/>
<path d="M118.364 26.2588L114.536 27.6065L110.587 30.9759L109.145 34.9584L110.493 39.7362L112.514 42.4316L116.692 43.6513H120.695L123.97 41.0839L126.666 37.7146V32.6403L124.644 29.6281L118.364 26.2588Z" stroke="black" stroke-width="3" stroke-miterlimit="10"/>
<path d="M135.224 37.5871L137.178 34.959H140.473L143.061 36.273V40.4241L140.696 43.6519L138.121 47.1493L136.774 49.8447H140.217H144.186" stroke="black" stroke-width="3" stroke-miterlimit="10"/>
<path d="M126.666 76.1797V80.0005V84.2122V89.8322V94.3V98.0669L123.296 96.3418L119.927 93.6464" stroke="black" stroke-width="3" stroke-miterlimit="10"/>
<path d="M127.306 98.9833L130.709 97.184L133.438 95.0479" stroke="black" stroke-width="3" stroke-miterlimit="10"/>
<path d="M143.849 87.582V91.4096V95.6213V101.235V105.709V109.476L140.48 107.751L137.111 105.055" stroke="black" stroke-width="3" stroke-miterlimit="10"/>
<path d="M144.489 110.391L147.892 108.592L150.622 106.456" stroke="black" stroke-width="3" stroke-miterlimit="10"/>
</svg>
