<svg width="163" height="133" viewBox="0 0 163 133" fill="none" xmlns="http://www.w3.org/2000/svg">
<path d="M2 41.651V62.4677V82.042V104.934V120.047L4.04863 126.57L8.01372 129.213L17.2656 131.196H31.2227H51.7949H72.8891H89.2451H99.5279L105.158 129.213L108.463 124.587L109.784 117.979V107.161V94.2412V81.8437V70.5036V60.4785L105.158 53.8767L100.532 51.2333H91.2806L55.8922 51.1738L48.9863 47.2682L43.2171 41.651L37.7519 37.3555H21.8585H2V41.651Z" stroke="black" stroke-width="3" stroke-miterlimit="10"/>
<path d="M11.9789 105.423V112.038V118.633L13.9614 121.283H22.2683H35.9809H45.4773H51.5438H57.0817L58.8991 118.64V113.353V107.881L57.1016 105.423H48.3982H32.8419H11.9789Z" stroke="black" stroke-width="3" stroke-miterlimit="10"/>
<path d="M32.0421 113.353H49.7066" stroke="black" stroke-width="3" stroke-miterlimit="10"/>
<path d="M21.2307 111.37V112.89V114.628H23.0547H24.7993V113.353V112.09V111.37H21.2307Z" fill="black"/>
<path d="M58.899 51.1801V43.9703V36.5622V31.467V25.678V21.9706H72.9288H81.7313H92.6089H106.969L122.34 20.834H131.976L134.236 22.1557V36.0071V52.4093V118.402V121.283L130.931 122.605H122.81L114.47 121.283H109.784" stroke="black" stroke-width="3" stroke-miterlimit="10"/>
<path d="M84.2755 20.8342V15.2897V9.73192V6.03117V3.48691L86.985 2H91.9413H158.865L161 3.3217V7.06209V101.074V103.619L156.407 105.423H150.155H144.366H139.04H134.236" stroke="black" stroke-width="3" stroke-miterlimit="10"/>
<path d="M11.9789 37.3554V34.1834V31.4012V28.8569L14.2918 27.1123H19.8958H30.78H42.5894L47.3342 28.434L51.3786 32.2339L56.9298 37.3554L58.8991 39.338" stroke="black" stroke-width="3" stroke-miterlimit="10"/>
<path d="M67.7544 30.125V31.6383V33.383H69.5783H71.3229V32.1075V30.8453V30.125H67.7544Z" fill="black"/>
<path d="M77.8853 31.7578H95.5497" stroke="black" stroke-width="3" stroke-miterlimit="10"/>
<path d="M67.3116 41.0098H127.627" stroke="black" stroke-width="3" stroke-miterlimit="10"/>
</svg>
