<svg width="145" height="146" viewBox="0 0 145 146" fill="none" xmlns="http://www.w3.org/2000/svg">
<path d="M57.9637 143.23H43.4922H28.1569V137.755V126.198L29.9818 116.246L38.498 107.34L48.2309 103.691L57.9637 100.041L54.9222 96.391L50.0558 94.6695L41.5395 92.1329L41.7403 87.5707L44.581 83.0084L50.0558 74.8937V67.8009L48.2309 55.0266L45.1893 50.1602L40.9312 45.9021L32.415 44.0771L25.7237 45.9325L19.6407 50.7685L17.8158 59.2847V69.0175L20.249 79.3586L25.7237 85.4842V91.5246L22.6822 93.9578L14.7743 96.391L7.47471 100.041L2 108.156V118.04V131.064L9.60376 131.368L17.8158 131.612L25.7237 131.989" stroke="black" stroke-width="3" stroke-miterlimit="10"/>
<path d="M25.7238 85.4844L29.9819 86.9504H34.7814H38.8083L41.7403 87.5709L41.5396 92.1331L39.7147 98.2161L35.4566 106.124L33.2302 109.293L29.9819 100.497L27.8102 97.3888L25.7238 91.5248" stroke="black" stroke-width="3" stroke-miterlimit="10"/>
<path d="M13.8618 125.286V120.255V116.229V131.497" stroke="black" stroke-width="3" stroke-miterlimit="10"/>
<path d="M43.4922 143.23V138.236V134.209V128.716" stroke="black" stroke-width="3" stroke-miterlimit="10"/>
<path d="M48.2308 55.0273L50.9682 47.4235L55.2263 40.1239L61.3093 35.2575L66.784 33.4326H72.94L80.7749 35.2575L88.6828 39.5156L92.3326 48.6401L94.5104 57.9046V67.6313V75.6913L90.0819 85.4849L83.8468 89.4693L77.1251 91.2212H69.199L61.4979 89.5605" stroke="black" stroke-width="3" stroke-miterlimit="10"/>
<path d="M81.9124 89.9739V95.0289V100.735L79.2542 107.949L75.6044 114.641L71.6504 121.028L68.0006 113.12L63.7425 103.387L61.4979 97.3891V89.5603L56.7531 85.4846L50.0557 74.8941L48.6445 57.9043L40.9312 62.3266L32.6158 64.2306H24.1908H17.8158" stroke="black" stroke-width="3" stroke-miterlimit="10"/>
<path d="M94.5104 75.6905V77.7344L96.5908 80.271L100.849 83.9208L106.05 86.9624H113.623L119.098 84.5291L122.748 80.8793L125.181 75.4046L127.006 67.9469V59.5888L125.181 54.1141L121.531 48.0311L116.665 44.9896L109.256 44.0771L103.89 46.2062L99.024 49.856L94.5104 54.9232L98.4157 60.1971L103.136 62.3262L110.758 63.2021L117.273 63.2386H123.356H125.789" stroke="black" stroke-width="3" stroke-miterlimit="10"/>
<path d="M81.9125 99.1592L91.1161 101.562L99.6323 103.995L106.324 107.037L112.407 113.728L116.038 121.028V131.496V138.352V143.231H107.546H83.5488" stroke="black" stroke-width="3" stroke-miterlimit="10"/>
<path d="M100.849 127.719V131.496V135.973V142.458" stroke="black" stroke-width="3" stroke-miterlimit="10"/>
<path d="M84.7898 99.1594L92.3327 95.4792L98.1724 93.6543H102.108L104.462 97.3893L106.932 102.171L109.973 107.037L110.758 109.294L114.232 102.171L116.038 99.1594L117.273 94.8709L120.99 93.6543L128.831 94.8709L135.151 97.3893L140.388 103.387L142.822 110.078V116.228V123.041V128.717V132.683H130.771H127.006H120.74H117.985L116.038 131.497" stroke="black" stroke-width="3" stroke-miterlimit="10"/>
<path d="M131.385 116.229V121.028V126.174L130.771 132.683" stroke="black" stroke-width="3" stroke-miterlimit="10"/>
<path d="M49.8611 60.1666H57.9636H63.998L71.3706 57.9037L77.1251 54.7223L79.5583 52.2891L84.7897 54.3147L87.9955 56.2309L94.5104 57.9037" stroke="black" stroke-width="3" stroke-miterlimit="10"/>
<path d="M67.6965 76.3301L68.8766 79.4993L71.5592 80.2719H73.7309L76.2188 78.301L77.9403 76.3301" stroke="black" stroke-width="3" stroke-miterlimit="10"/>
<path d="M61.0052 66.5842L59.7886 67.8008V69.723L60.3969 70.9275L61.6135 71.4506H63.043L64.0467 70.234L64.5516 69.0174V67.8616L63.7121 66.5842L62.1731 66.2861L61.0052 66.5842Z" fill="black"/>
<path d="M80.5074 66.1894L79.2908 67.406V69.3283L79.8991 70.5327L81.1157 71.0558H82.5391L83.5489 69.8392L84.0538 68.6226V67.4669L83.2082 66.1894L81.6692 65.8975L80.5074 66.1894Z" fill="black"/>
<path d="M71.7842 141.113L70.5676 142.33V144.252L71.1759 145.457L72.3925 145.98H73.822L74.8257 144.763L75.3306 143.547V142.385L74.4912 141.113L72.9522 140.815L71.7842 141.113Z" fill="black"/>
<path d="M54.3139 6.97158L53.7056 8.79648L55.5305 11.838L57.3554 13.6629L58.572 14.8795L61.0052 16.0961L62.1731 14.8734L62.8301 13.0546L62.1731 11.5338L59.7886 8.91814L57.9637 6.97158L55.5305 6.36328L54.3139 6.97158Z" fill="black"/>
<path d="M72.1857 23.9612L70.1297 22.1789L69.5214 19.7457V16.0959V13.322V11.7648L70.8535 11.2295H72.1857H73.597L74.9961 13.0544V14.6056V16.8745V19.2834V21.4124L73.7795 22.7872L72.1857 23.9612Z" fill="black"/>
<path d="M72.1857 0L70.1297 0.888119L69.5214 2.97459L70.8535 4.53184H72.2587H73.6031L74.9961 3.54639V1.70324L74.035 0H72.1857Z" fill="black"/>
<path d="M82.0585 14.8671L83.8956 15.4328L86.8945 13.541L88.6829 11.6735L89.8691 10.4265L91.031 7.96893L89.7779 6.8314L87.9469 6.21094L86.4383 6.9044L83.8774 9.34977L81.9794 11.2173L81.4259 13.6626L82.0585 14.8671Z" fill="black"/>
<path d="M7.41992 18.0843L8.33237 19.7754L11.7997 20.5236L14.3789 20.4445L16.1004 20.3897L18.6492 19.453L18.5579 17.7619L17.682 16.0404L16.1247 15.4808L12.5844 15.4199H9.92004L7.80923 16.7764L7.41992 18.0843Z" fill="black"/>
<path d="M20.9181 4.54395L19.2027 5.40773L18.3511 8.85071L18.3632 11.4299L18.3693 13.1514L19.2392 15.7306L20.9303 15.6819L22.6761 14.8607L23.2783 13.3156L23.4365 9.77533L23.5095 7.11097L22.2138 4.96976L20.9181 4.54395Z" fill="black"/>
<path d="M34.398 18.1577L33.6072 16.4058L30.2007 15.4142L27.6215 15.3169L25.9001 15.25L23.2904 16.0104L23.2661 17.7015L24.0204 19.4838L25.5351 20.1468L29.0632 20.451L31.7215 20.6395L33.9235 19.429L34.398 18.1577Z" fill="black"/>
<path d="M20.468 31.613L22.1651 30.7006L22.9194 27.2333L22.8464 24.6541L22.7917 22.9326L21.8549 20.3838L20.1699 20.475L18.4423 21.3449L17.8766 22.9022L17.8158 26.4425L17.8097 29.1068L19.1662 31.2176L20.468 31.613Z" fill="black"/>
<path d="M113.307 20.6214L114.219 22.3125L117.687 23.0668L120.266 22.9816L121.981 22.9329L124.536 21.9901L124.445 20.3051L123.569 18.5775L122.012 18.0179L118.471 17.957H115.801L113.696 19.3196L113.307 20.6214Z" fill="black"/>
<path d="M126.805 7.08008L125.09 7.94387L124.238 11.3868L124.25 13.9721L124.256 15.6875L125.126 18.2667L126.811 18.2181L128.563 17.3969L129.165 15.8518L129.323 12.3115L129.396 9.65319L128.095 7.50589L126.805 7.08008Z" fill="black"/>
<path d="M140.285 20.6948L139.494 18.9429L136.088 17.9514L133.509 17.854L131.787 17.7871L129.177 18.5475L129.153 20.2386L129.901 22.0209L131.422 22.69L134.95 22.9881L137.608 23.1767L139.804 21.9661L140.285 20.6948Z" fill="black"/>
<path d="M126.355 34.1501L128.046 33.2377L128.806 29.7704L128.727 27.1912L128.679 25.4758L127.742 22.9209L126.057 23.0121L124.329 23.882L123.764 25.4393L123.703 28.9796L123.697 31.6439L125.053 33.7547L126.355 34.1501Z" fill="black"/>
<path d="M113.623 86.9629L117.273 94.8708" stroke="black" stroke-width="3" stroke-miterlimit="10"/>
<path d="M104.194 86.0498L102.108 93.6536" stroke="black" stroke-width="3" stroke-miterlimit="10"/>
</svg>
