<svg width="56" height="71" viewBox="0 0 56 71" fill="none" xmlns="http://www.w3.org/2000/svg">
<path d="M52.5354 31.6219L52.6123 32.9745L51.8609 37.5595L51.3792 42.3768V46.4181V51.3064V56.7593V61.9298L50.6861 64.8576L49.6076 67.1728L48.5292 68.2931L47.6815 68.9653H46.5649H42.1644L37.1282 69.3388H32.0801H25.9708H20.0563H16.6625L14.4025 68.8906L13.1702 68.5172L11.3986 67.3222L10.3971 65.6044L9.85783 63.2144L9.39552 60.8245V58.2635L8.77935 53.8786L8.31704 49.3227L7.85473 44.5427L7.46934 40.5843V38.1451L6.77625 34.3853V32.2224V30.2484L6.00623 28.7091L4.92924 28.261L4.31084 27.2154V26.3938L4.15698 25.9457V25.1929L5.15853 24.7507H7.39839L9.47244 24.3026H11.79L20.4118 23.8545L28.3846 24.1503L31.6589 24.2279L37.6675 24.5267L42.6745 24.6014L47.3738 24.9001L50.5323 25.0495L53.1515 25.3662L54.6146 25.7963L55 26.6926V27.6254L53.6908 28.261L53.1515 29.3066L52.6123 30.651L52.5354 31.6219Z" stroke="black" stroke-width="2" stroke-miterlimit="10"/>
<path d="M44.6775 3.2406H45.88H46.9869L47.6045 4.51028V5.66643L45.4476 6.75088L41.6729 7.72181L39.2082 8.46868L35.4336 9.73836L32.1981 11.008L28.5004 12.5018L22.9534 14.7424L17.0987 17.3564L13.0932 19.1489L9.8578 20.7173L6.85315 22.4351L4.85005 23.3314H3.74244L2.61617 22.3604L2 21.5389L2.77077 20.5679L3.77157 20.1945L4.15696 18.3415V16.2944L5.77467 14.5183L8.16689 13.286L9.8578 12.4271L12.0148 11.2321L13.6325 10.4105L15.404 9.73836L14.7879 8.39399L15.0187 7.34838L16.0202 6.15339L18.1002 5.25715L20.951 4.13685L22.7495 3.2406L24.8026 2.64386L26.805 2.04562H28.2808L29.5789 3.22865L30.8112 3.53935L32.8143 3.01654L35.6225 2.04562L37.8213 1.44812L39.439 1H41.053L42.2891 1.67218L43.3675 2.86717L44.6775 3.2406Z" stroke="black" stroke-width="2" stroke-miterlimit="10"/>
<path d="M27.0216 4.08105L27.8837 4.52926L27.453 5.34435L26.1596 5.87387L24.1705 6.57819L22.314 7.53862L20.656 8.17891L19.1311 9.01129H17.7458L17.407 8.11488L18.6008 6.96236L20.9215 6.00192L23.4409 5.04149L24.9664 4.42489L27.0216 4.08105Z" stroke="black" stroke-miterlimit="10"/>
<path d="M37.9751 31.248L38.8997 32.6671V35.6889V39.7295V45.1794V52.2268V56.5497V60.402L38.4374 62.5635L37.9751 64.0669L37.1281 63.6621L36.5889 62.0937V58.9927V54.7639V49.0317V43.112V38.226V35.2191V33.0577L37.0512 31.7709L37.9751 31.248Z" stroke="black" stroke-width="2" stroke-miterlimit="10"/>
<path d="M25.0335 31.2334L25.9581 32.6524V35.6743V39.7148V45.1647V52.2122V56.535V60.3874L25.4958 62.5488L25.0335 64.0523L24.1866 63.6475L23.6473 62.0791V58.9781V54.7493V49.0178V43.0974V38.2114V35.2045V33.0431L24.1089 31.7562L25.0335 31.2334Z" stroke="black" stroke-width="2" stroke-miterlimit="10"/>
</svg>
