<svg width="160" height="167" viewBox="0 0 160 167" fill="none" xmlns="http://www.w3.org/2000/svg">
<path d="M63.1552 123.12C57.2654 120.345 55.8944 110.441 52.4192 104.926C49.8307 100.432 46.734 95.6582 44.0807 91.4754C42.1265 88.4374 40.4213 85.2115 39.3947 81.7156C37.2189 74.43 37.8157 67.2366 39.63 59.9373C40.4758 56.5234 41.1954 53.3043 42.5016 50.3893C43.9613 47.0507 46.5123 44.3818 49.169 41.9418C51.5256 39.7821 53.9982 37.6565 56.5594 36.0641C59.1684 34.4272 62.0741 33.2858 64.9935 32.3085C73.2569 29.3286 81.9263 28.3752 90.6263 29.3935C99.1967 30.5964 108.685 36.3716 114.305 42.7995C119.223 48.5543 123.956 55.0129 125.324 62.5583C126.047 66.0337 126.088 69.181 125.914 72.7965C125.672 78.7904 125.256 84.9655 122.319 90.2623C120.352 93.97 117.449 96.8201 114.871 100.227C112.296 103.545 110.148 107.325 108.238 111.104C106.955 113.626 105.816 116.241 104.595 118.506C103.19 121.185 101.366 123.376 98.3782 124.138C97.0481 124.517 95.5544 124.671 94.0845 124.702C87.7615 124.743 79.0103 124.572 72.6669 124.541C69.5123 124.5 66.0405 124.363 63.203 123.143L63.1586 123.123L63.1552 123.12Z" stroke="black" stroke-width="4" stroke-miterlimit="10"/>
<path d="M98.5438 144.726V142.677L98.2033 139.603L98.8844 133.798L98.2033 132.432L99.5654 131.066L99.6642 124.506L63.9798 124.065L62.1069 125.944V132.091L62.788 133.457L61.7664 135.506L63.1285 137.896L62.1069 139.603L63.469 142.335L61.7664 144.043L62.788 148.141L62.4474 151.897L63.1285 157.02L65.8527 159.41L71.3013 162.484L78.4524 164.533H86.9657L94.1169 161.118L98.2033 156.678V151.214L98.5438 144.726Z" stroke="black" stroke-width="4" stroke-miterlimit="10"/>
<path d="M72.686 124.066L74.0824 109.653L73.7333 104.162L74.0824 101.074L77.2243 99.0146H81.4134L86.1472 99.8863L86.999 100.044L88.3953 104.505L87.6971 109.653L88.7444 112.398V117.202V124.066H72.686Z" stroke="black" stroke-width="4" stroke-miterlimit="10"/>
<path d="M86.9245 95.0738C87.3764 93.6147 88.9942 89.319 88.9942 89.319L90.0291 84.2412L77.2657 85.5953L71.4014 84.2412L75.7064 99.0784L81.0602 98.7974L85.7344 99.6573C85.7344 99.6573 86.5726 96.2044 86.9245 95.0738Z" stroke="black" stroke-width="4" stroke-miterlimit="10"/>
<path d="M63.051 133.701H99.0218" stroke="black" stroke-width="4" stroke-miterlimit="10"/>
<path d="M62.4087 140.124H98.3795" stroke="black" stroke-width="4" stroke-miterlimit="10"/>
<path d="M62.4087 145.905L99.0218 146.548" stroke="black" stroke-width="4" stroke-miterlimit="10"/>
<path d="M62.4087 151.687H99.0218" stroke="black" stroke-width="4" stroke-miterlimit="10"/>
<path d="M79.6992 49.9141C82.8242 49.9141 84.9987 50.7279 86.2227 52.3555C87.4596 53.9701 88.0781 55.6367 88.0781 57.3555H84.6016C84.3932 56.2487 84.0612 55.3828 83.6055 54.7578C82.7591 53.5859 81.4766 53 79.7578 53C77.7917 53 76.2292 53.9115 75.0703 55.7344C73.9115 57.5443 73.2669 60.1419 73.1367 63.5273C73.944 62.3424 74.9596 61.457 76.1836 60.8711C77.3034 60.3503 78.5534 60.0898 79.9336 60.0898C82.2773 60.0898 84.3216 60.8385 86.0664 62.3359C87.8112 63.8333 88.6836 66.0664 88.6836 69.0352C88.6836 71.5742 87.8568 73.8268 86.2031 75.793C84.5495 77.7461 82.1927 78.7227 79.1328 78.7227C76.5156 78.7227 74.2565 77.7331 72.3555 75.7539C70.4544 73.7617 69.5039 70.4154 69.5039 65.7148C69.5039 62.2383 69.9271 59.2891 70.7734 56.8672C72.401 52.2318 75.3763 49.9141 79.6992 49.9141ZM79.4453 75.5977C81.2943 75.5977 82.6745 74.9792 83.5859 73.7422C84.5104 72.4922 84.9727 71.0208 84.9727 69.3281C84.9727 67.8958 84.5625 66.5352 83.7422 65.2461C82.9219 63.944 81.431 63.293 79.2695 63.293C77.7591 63.293 76.431 63.7943 75.2852 64.7969C74.1523 65.7995 73.5859 67.3099 73.5859 69.3281C73.5859 71.099 74.1003 72.5898 75.1289 73.8008C76.1706 74.9987 77.6094 75.5977 79.4453 75.5977Z" fill="black"/>
<line x1="0.142494" y1="64.0051" x2="28.1425" y2="66.0051" stroke="black" stroke-width="4"/>
<line x1="132.448" y1="68.8228" x2="159.43" y2="61.0776" stroke="black" stroke-width="4"/>
<line x1="23.1956" y1="10.3967" x2="45.6989" y2="27.1777" stroke="black" stroke-width="4"/>
<line x1="138.001" y1="13.6375" x2="116.148" y2="28.9627" stroke="black" stroke-width="4"/>
<line x1="84.0925" y1="0.00924842" x2="84" y2="20.0173" stroke="black" stroke-width="4"/>
</svg>
