<svg width="284" height="364" viewBox="0 0 284 364" fill="none" xmlns="http://www.w3.org/2000/svg">
<path d="M269.026 163.198L269.431 170.319L265.475 194.455L262.939 219.814V241.088V266.82V295.525V322.744L259.291 338.156L253.614 350.344L247.936 356.241L243.474 359.78H237.596H214.431L187.92 361.745H161.346H129.186H98.0511H80.1858L68.2887 359.387L61.8015 357.421L52.4757 351.13L47.2034 342.087L44.3648 329.506L41.9311 316.925V303.443L38.6875 280.361L36.2538 256.378L33.8201 231.216L31.7914 210.378V197.537L28.1429 177.745V166.359V155.968L24.0894 147.865L18.42 145.506L15.1646 140.002V135.677L14.3547 133.318V129.355L19.627 127.028H31.4179L42.336 124.669H54.5359L99.9226 122.31L141.893 123.866L159.129 124.275L190.759 125.848L217.116 126.241L241.854 127.814L258.481 128.6L272.269 130.267L279.971 132.532L282 137.25V142.16L275.108 145.506L272.269 151.01L269.431 158.087L269.026 163.198Z" stroke="#1100FF" stroke-width="4" stroke-miterlimit="10"/>
<path d="M227.661 13.7949H233.991H239.817L243.069 20.4786V26.5648L231.714 32.2735L211.844 37.3846L198.87 41.3162L178.999 48L161.967 54.6838L142.502 62.547L113.302 74.3419L82.4817 88.1026L61.3964 97.5385L44.3646 105.795L28.5477 114.838L18.0031 119.556H12.1725L6.24359 114.444L3 110.12L7.05744 105.009L12.3258 103.043L14.3545 93.2884V82.5118L22.8704 73.1624L35.4634 66.6752L44.3646 62.1539L55.7191 55.8633L64.235 51.5385L73.5609 48L70.3173 40.9231L71.5321 35.4188L76.8045 29.1282L87.754 24.4103L102.761 18.5128L112.228 13.7949L123.036 10.6535L133.577 7.50427H141.346L148.179 13.732L154.666 15.3675L165.211 12.6154L179.994 7.50427L191.569 4.35897L200.084 2H208.581L215.088 5.53846L220.765 11.8291L227.661 13.7949Z" stroke="#1100FF" stroke-width="4" stroke-miterlimit="10"/>
<path d="M134.718 18.2197L139.256 20.5791L136.988 24.8699L130.18 27.6574L119.709 31.365L109.936 36.4209L101.208 39.7914L93.1808 44.1732H85.888L84.1046 39.4544L90.3889 33.3873L102.606 28.3315L115.868 23.2756L123.899 20.0297L134.718 18.2197Z" stroke="#1100FF" stroke-width="4" stroke-miterlimit="10"/>
<path d="M192.378 161.23L197.246 168.701V184.608V205.878V234.567V271.666V294.422V314.701L194.812 326.08L192.378 333.994L187.92 331.863L185.081 323.607V307.282V285.022V254.846V223.684V197.964V182.135V170.757L187.515 163.983L192.378 161.23Z" stroke="#1100FF" stroke-width="4" stroke-miterlimit="10"/>
<path d="M124.252 161.152L129.119 168.622V184.53V205.8V234.489V271.588V294.344V314.623L126.685 326.001L124.252 333.916L119.793 331.785L116.955 323.528V307.204V284.943V254.772V223.606V197.886V182.057V170.679L119.384 163.904L124.252 161.152Z" stroke="#1100FF" stroke-width="4" stroke-miterlimit="10"/>
</svg>
