<svg width="635" height="814" viewBox="0 0 635 814" fill="none" xmlns="http://www.w3.org/2000/svg">
<path d="M601.936 365.104L602.843 381.054L593.982 435.123L588.302 491.931V539.587V597.232V661.535V722.508L580.128 757.033L567.41 784.336L554.693 797.547L544.696 805.474H531.529H479.636L420.248 809.878H360.718H288.674H218.928H178.907L152.256 804.593L137.724 800.19L116.832 786.098L105.022 765.841L98.6627 737.657L93.2109 709.473V679.273L85.9448 627.565L80.493 573.839L75.0413 517.472L70.4966 470.793V442.028L62.3234 397.691V372.185V348.907L53.2429 330.755L40.5426 325.471L33.2501 313.14V303.452L31.4358 298.168V289.29L43.2465 284.076H69.6599L94.1181 278.791H121.447L223.12 273.507L317.139 276.995L355.751 277.911L426.606 281.434L485.651 282.314L541.068 285.837L578.314 287.599L609.202 291.333L626.455 296.406L631 306.975V317.975L615.561 325.471L609.202 337.801L602.843 353.654L601.936 365.104Z" stroke="#1100FF" stroke-width="8" stroke-miterlimit="10"/>
<path d="M509.273 30.4222H523.453H536.505L543.789 45.3948V59.0287L518.353 71.817L473.841 83.2667L444.776 92.0741L400.264 107.047L362.11 122.019L318.504 139.634L253.092 166.056L184.051 196.882L136.816 218.02L98.6627 236.516L63.2305 256.773L39.6091 267.341H26.5477L13.2661 255.892L6 246.204L15.0892 234.754L26.8912 230.35L31.4358 208.499V184.358L50.5126 163.414L78.7227 148.882L98.6627 138.753L124.099 124.661L143.175 114.973L164.067 107.047L156.8 91.1933L159.522 78.8629L171.333 64.7711L195.861 54.2022L229.479 40.9911L250.687 30.4222L274.899 23.3851L298.512 16.3304H315.915L331.222 30.2813L345.754 33.9452L369.376 27.78L402.492 16.3304L428.421 9.28444L447.498 4H466.53L481.107 11.9267L493.825 26.0185L509.273 30.4222Z" stroke="#1100FF" stroke-width="8" stroke-miterlimit="10"/>
<path d="M307.298 32.5L319.109 38.6652L313.208 49.877L295.487 57.1607L268.237 66.8489L242.801 80.06L220.087 88.8674L199.196 100.317H180.216L175.574 87.9867L191.93 72.1333L223.725 58.9222L258.241 45.7111L279.141 37.2296L307.298 32.5Z" stroke="#1100FF" stroke-width="8" stroke-miterlimit="10"/>
<path d="M430.235 360.699L441.139 377.433V413.068V460.716V524.984V608.09V659.068V704.496L435.687 729.985L430.235 747.714L420.247 742.941L413.889 724.445V687.877V638.009V570.412V500.605V442.987V407.528V382.04L419.34 366.864L430.235 360.699Z" stroke="#1100FF" stroke-width="8" stroke-miterlimit="10"/>
<path d="M277.62 360.523L288.524 377.258V412.892V460.54V524.808V607.915V658.892V704.321L283.072 729.809L277.62 747.538L267.633 742.765L261.274 724.269V687.701V637.833V570.245V500.429V442.811V407.352V381.864L266.717 366.689L277.62 360.523Z" stroke="#1100FF" stroke-width="8" stroke-miterlimit="10"/>
</svg>
