<svg width="131" height="114" viewBox="0 0 131 114" fill="none" xmlns="http://www.w3.org/2000/svg">
<g clip-path="url(#clip0_76_17)">
<path d="M1.18311 6.29003V31.0555V54.3351V81.5772V99.5578L3.62802 107.318L8.36011 110.462L19.4016 112.821H36.0586H60.6103H85.785H105.297H117.577L124.296 110.462L128.24 104.959L129.817 97.0969V84.2267V68.8485V54.0993V40.608V28.6891L124.296 20.8349L118.776 17.69H107.734L65.5001 17.6193L57.2584 12.9728L50.3653 6.29003L43.8508 1.17969H24.8751H1.18311V6.29003Z" stroke="black" stroke-width="5" stroke-miterlimit="10"/>
<path d="M13.0923 82.1592V90.0291V97.8676L15.4583 101.028H25.3721H41.7372H53.0706H60.3106H66.9198L69.0887 97.8833V91.5937V85.0839L66.9435 82.1592H56.5565H37.9831H13.0923Z" stroke="black" stroke-width="5" stroke-miterlimit="10"/>
<path d="M37.0286 91.5938H58.1179" stroke="black" stroke-width="5" stroke-miterlimit="10"/>
<path d="M24.1338 89.2344V91.0348V93.1104H26.3105H28.3927V91.593V90.0913V89.2344H24.1338Z" fill="black"/>
<path d="M33.7083 41.3856L32.1309 38.2408L26.4997 35.6777H20.9789L15.4582 40.4972L13.9912 47.6753L15.4582 52.4554L21.0893 53.9649H26.4997H30.7586L33.7083 58.0768V62.6604L29.6229 65.6479H22.7298H18.1318H13.9912" stroke="black" stroke-width="4" stroke-miterlimit="10"/>
<path d="M41.0903 37.4863V45.1204V57V66.7568V37.4863Z" stroke="black" stroke-width="4" stroke-miterlimit="10"/>
<path d="M47.5733 37.4863L51.8479 39.0273L53.4253 42.1721V46.6614L52.2896 50.6632L49.474 52.1176L45.5385 53.179H42.3286L41.0903 37.4863H47.5733Z" stroke="black" stroke-width="4" stroke-miterlimit="10"/>
<path d="M61.2017 66.7568L62.1008 58.6825L63.339 52.1176L64.4668 46.1032L65.5 41.8419L67.3691 37.4863H70.1769L71.5649 40.5997L73.4893 45.3327L76.297 55.5376L77.8744 61.8273L79.0732 65.6483" stroke="black" stroke-width="4" stroke-miterlimit="10"/>
<path d="M63.2837 52.1172H67.6766H71.4939H75.3584H63.5361" stroke="black" stroke-width="3" stroke-miterlimit="10"/>
<path d="M87.9932 65.6485V60.7662V54.4529V47.9432V44.1143V40.4821L88.7976 37.4866L91.282 36.6689L94.1764 37.4866L96.8027 40.6L98.1908 45.3329L99.1688 49.2483L101.267 45.3329L103.112 42.1724L104.69 39.0276L106.843 37.4866H108.948L111.788 39.8138V42.6205V47.0233V51.1587V56.2062V60.2237V62.3229V64.0447" stroke="black" stroke-width="4" stroke-miterlimit="10"/>
</g>
<defs>
<clipPath id="clip0_76_17">
<rect width="131" height="114" fill="white"/>
</clipPath>
</defs>
</svg>
