<svg width="125" height="125" viewBox="0 0 125 125" fill="none" xmlns="http://www.w3.org/2000/svg">
<path d="M62.5001 106.369C60.2571 106.369 58.3612 105.595 56.8126 104.047C55.264 102.498 54.4897 100.602 54.4897 98.359C54.4897 96.116 55.264 94.2184 56.8126 92.6663C58.3612 91.1143 60.2571 90.34 62.5001 90.3434C64.7432 90.3469 66.639 91.1212 68.1876 92.6663C69.7362 94.2115 70.5105 96.1073 70.5105 98.3538C70.5105 100.6 69.7362 102.498 68.1876 104.047C66.639 105.595 64.7432 106.369 62.5001 106.369ZM62.5001 60.0986C68.6112 60.0986 74.363 61.1403 79.7553 63.2236C85.1477 65.307 89.9966 68.2045 94.3022 71.9163C95.1703 72.6177 95.6251 73.4979 95.6668 74.557C95.7119 75.6125 95.3543 76.5222 94.5939 77.2861C93.8508 78.0257 92.9463 78.3834 91.8803 78.3591C90.8144 78.3347 89.8456 77.9823 88.9741 77.3018C85.4081 74.3122 81.3612 71.9649 76.8334 70.2601C72.3057 68.5587 67.5279 67.708 62.5001 67.708C57.4723 67.708 52.6946 68.5587 48.1668 70.2601C43.639 71.9615 39.5939 74.3087 36.0314 77.3018C35.1633 77.9823 34.1928 78.3295 33.1199 78.3434C32.0539 78.3573 31.1512 77.9927 30.4116 77.2497C29.6685 76.4893 29.3126 75.5813 29.3439 74.5257C29.3751 73.4702 29.8265 72.59 30.698 71.8851C35.0036 68.1698 39.8543 65.2774 45.2501 63.208C50.639 61.1351 56.389 60.0986 62.5001 60.0986ZM62.5001 28.8486C73.0835 28.8486 82.9376 30.6768 92.0626 34.333C101.188 37.9927 109.302 43.0795 116.406 49.5934C117.274 50.3295 117.736 51.2497 117.792 52.3538C117.844 53.4545 117.49 54.3868 116.729 55.1507C115.92 55.9563 114.965 56.2965 113.865 56.1715C112.761 56.05 111.741 55.5952 110.807 54.807C104.356 49.0188 97.0123 44.5136 88.7762 41.2913C80.54 38.0691 71.7814 36.458 62.5001 36.458C53.2189 36.458 44.4602 38.0691 36.2241 41.2913C27.988 44.5136 20.6442 49.0188 14.1928 54.807C13.2553 55.5952 12.238 56.0518 11.1407 56.1768C10.0366 56.2983 9.08171 55.9563 8.27616 55.1507C7.51227 54.3868 7.1581 53.4545 7.21366 52.3538C7.26574 51.2531 7.72581 50.333 8.59387 49.5934C15.698 43.0795 23.8126 37.9927 32.9376 34.333C42.0626 30.6802 51.9168 28.8486 62.5001 28.8486Z" fill="black"/>
</svg>
